# Blender 3.6.3
# www.blender.org
mtllib porta sensori.mtl
o Plane
v 0.000000 0.000000 -2.999999
v -21.000000 50.000000 -0.000001
v -21.000000 0.000000 -0.000001
v 0.000000 0.000000 0.000001
v 0.000000 50.000000 0.000001
v -21.000000 50.000000 -3.000001
v -21.000000 0.000000 -3.000001
v 0.000000 50.000000 -2.999999
v -63.712696 -1.000000 9.533985
v -79.194153 49.000000 24.036549
v -79.194153 -1.000000 24.036549
v -61.991966 -1.000000 11.991444
v -61.991966 49.000000 11.991444
v -80.914886 49.000000 21.579090
v -80.914886 -1.000000 21.579090
v -63.712696 49.000000 9.533985
v -21.000000 0.000000 42.000000
v 41.000000 0.000000 42.000000
v -21.000000 0.000000 0.000000
v 41.000000 0.000000 0.000000
v 40.938866 -1.000000 11.977474
v 59.861786 49.000000 21.565109
v 59.861786 -1.000000 21.565109
v 42.659595 -1.000000 9.520008
v 42.659595 49.000000 9.520008
v 58.141052 49.000000 24.022572
v 58.141052 -1.000000 24.022572
v 40.938866 49.000000 11.977474
v -21.000000 3.000000 -0.000001
v 0.000000 3.000000 0.000001
v 0.000000 5.000000 -2.999999
v -21.000000 5.000000 -3.000001
v -79.194153 4.000000 24.036549
v -61.991966 2.000000 11.991444
v -63.712696 4.000000 9.533985
v -80.914886 4.000000 21.579090
v 59.861786 4.000000 21.565109
v 42.659595 4.000000 9.520008
v 40.938866 2.000000 11.977474
v 58.141052 4.000000 24.022572
v -21.135712 3.000000 15.593653
v -21.135712 0.000000 15.593653
v -33.433304 -1.000000 19.191088
v -33.433304 2.000000 19.191088
v 12.398283 2.020363 19.181858
v 12.398283 -1.030544 19.181858
v 0.116622 -0.020363 15.588615
v 0.116622 3.030544 15.588615
vn -0.0000 -1.0000 -0.0000
vn -0.0000 -0.0000 1.0000
vn -0.0219 0.9997 0.0069
vn 0.2816 -0.0000 -0.9595
vn -0.0000 -0.0000 -1.0000
vn -0.0000 1.0000 -0.0000
vn 0.5736 -0.0000 0.8192
vn -0.8192 -0.0000 0.5736
vn -0.2816 -0.0000 -0.9595
vn -0.5736 -0.0000 -0.8192
vn 0.5736 -0.0000 -0.8192
vn 0.8192 -0.0000 0.5736
vn 0.0219 0.9997 0.0069
vn -0.5736 -0.0000 0.8192
vn 0.0002 -0.0000 1.0000
vn 0.0219 -0.9997 -0.0069
vn -0.0219 -0.9997 -0.0069
vn -0.2808 -0.0000 0.9598
vn -0.0005 -1.0000 -0.0007
vn 0.2808 -0.0000 0.9598
vn 0.0275 -0.9990 -0.0343
vn -0.0275 0.9990 0.0343
vn -0.2445 -0.0000 0.9697
vn 0.0281 0.9991 0.0328
vn -0.0272 -0.9990 -0.0361
vn 0.2447 -0.0000 0.9696
vn -0.0007 1.0000 -0.0010
vt 0.375000 0.000000
vt 0.625000 0.000000
vt 0.625000 0.250000
vt 0.375000 0.250000
vt 0.400000 0.250000
vt 0.625000 0.500000
vt 0.400000 0.500000
vt 0.625000 0.750000
vt 0.875000 0.750000
vt 0.875000 0.500000
vt 0.400000 0.250000
vt 0.125000 0.750000
vt 0.150000 0.750000
vt 0.150000 0.500000
vt 0.375000 0.500000
vt 0.375000 0.750000
vt 0.400000 0.250000
vt 0.400000 0.500000
vt 0.400000 0.750000
vt 0.125000 0.500000
s 0
f 3/1/1 7/2/1 1/3/1 4/4/1
f 30/5/2 5/3/2 2/6/2 29/7/2
f 16/8/3 13/9/3 2/10/3 6/6/3
f 38/11/4 24/4/4 1/12/4 31/13/4
f 32/14/5 6/15/5 8/16/5 31/13/5
f 6/6/6 2/10/6 5/9/6 8/8/6
f 11/1/1 15/2/1 9/3/1 12/4/1
f 34/17/7 13/3/7 10/6/7 33/18/7
f 33/18/8 10/6/8 14/8/8 36/19/8
f 35/13/9 16/16/9 6/15/9 32/14/9
f 36/14/10 14/15/10 16/16/10 35/13/10
f 14/6/6 10/10/6 13/9/6 16/8/6
f 23/1/1 27/2/1 21/3/1 24/4/1
f 38/11/11 25/3/11 22/6/11 37/7/11
f 37/7/12 22/6/12 26/8/12 40/19/12
f 28/8/13 25/9/13 8/8/13 5/9/13
f 40/14/14 26/15/14 28/16/14 39/13/14
f 26/6/6 22/10/6 25/9/6 28/8/6
f 47/4/15 48/5/15 41/7/15 42/15/15
f 12/4/16 9/3/16 7/2/16 3/1/16
f 24/4/17 21/3/17 4/4/17 1/3/17
f 39/13/18 28/16/18 5/3/18 30/5/18
f 4/4/19 47/4/19 42/1/19 3/1/19
f 13/3/20 34/17/20 29/7/20 2/6/20
f 27/20/14 40/14/14 39/13/14 21/12/14
f 23/15/12 37/7/12 40/19/12 27/16/12
f 24/4/11 38/11/11 37/7/11 23/15/11
f 15/20/10 36/14/10 35/13/10 9/12/10
f 9/12/9 35/13/9 32/14/9 7/20/9
f 11/15/8 33/18/8 36/19/8 15/16/8
f 12/4/7 34/17/7 33/18/7 11/15/7
f 7/20/5 32/14/5 31/13/5 1/12/5
f 25/3/4 38/11/4 31/13/4 8/16/4
f 4/4/2 30/5/2 29/7/2 3/15/2
f 44/17/20 43/4/20 42/15/20 41/7/20
f 12/4/21 3/1/21 42/1/21 43/4/21
f 29/7/22 34/17/22 44/17/22 41/7/22
f 34/17/23 12/4/23 43/4/23 44/17/23
f 46/12/18 45/13/18 48/5/18 47/4/18
f 39/13/24 30/5/24 48/5/24 45/13/24
f 4/4/25 21/3/25 46/3/25 47/4/25
f 21/12/26 39/13/26 45/13/26 46/12/26
f 48/5/27 30/5/27 29/7/27 41/7/27
